<?xml version="1.0" standalone="no"?>
<!DOCTYPE svg PUBLIC "-//W3C//DTD SVG 20010904//EN"
 "http://www.w3.org/TR/2001/REC-SVG-20010904/DTD/svg10.dtd">
<svg version="1.0" xmlns="http://www.w3.org/2000/svg"
 width="900.000000pt" height="900.000000pt" viewBox="0 0 900.000000 900.000000"
 preserveAspectRatio="xMidYMid meet">

<g transform="translate(0.000000,900.000000) scale(0.100000,-0.100000)"
fill="#000000" stroke="none">
<path d="M4200 8990 c-514 -40 -974 -151 -1440 -347 -726 -306 -1390 -828
-1866 -1468 -276 -371 -493 -778 -643 -1207 -179 -509 -263 -1053 -247 -1588
18 -579 129 -1088 353 -1620 464 -1101 1383 -1999 2503 -2445 233 -93 594
-198 820 -239 776 -140 1558 -80 2290 176 512 179 986 450 1410 804 126 104
379 353 495 484 194 221 400 511 547 770 306 539 493 1135 560 1790 16 158 16
648 0 800 -71 658 -245 1223 -541 1756 -489 877 -1253 1575 -2157 1969 -427
186 -836 294 -1325 350 -162 19 -600 27 -759 15z m755 -385 c557 -60 1125
-246 1605 -526 1159 -674 1919 -1850 2051 -3174 17 -167 17 -634 1 -795 -102
-997 -549 -1901 -1275 -2578 l-122 -114 -7 124 c-50 840 -501 1604 -1239 2097
-214 143 -394 233 -646 321 l-133 46 153 77 c175 89 294 174 422 302 267 267
439 615 501 1012 24 158 22 413 -5 568 -64 366 -220 676 -471 939 -576 603
-1499 729 -2206 300 -136 -82 -207 -138 -328 -254 -518 -500 -683 -1252 -419
-1920 165 -420 480 -772 871 -971 l102 -52 -127 -42 c-176 -59 -267 -96 -413
-170 -270 -138 -470 -284 -696 -510 -320 -319 -518 -640 -664 -1075 -64 -191
-120 -520 -120 -703 l0 -88 -31 22 c-60 42 -335 324 -441 452 -524 630 -844
1390 -929 2207 -17 158 -17 623 -1 795 72 758 363 1500 825 2105 726 949 1786
1524 2987 1620 156 12 584 4 755 -15z"/>
</g>
</svg>
